{"title":"Coast Australia - S01E01 - The Kimberley","uid":15206911,"size":436229829,"categoryP":"video","categoryS":"tv_shows","magnet":"?xt=urn:btih:88416c11196dd2e20ad9f6fc6ff782663757f9ab&amp;dn=Coast+Australia+-+S01E01+-+The+Kimberley&amp;tr=udp%3A%2F%2Ftracker.leechers-paradise.org%3A6969&amp;tr=udp%3A%2F%2Fzer0day.ch%3A1337&amp;tr=udp%3A%2F%2Fopen.demonii.com%3A1337&amp;tr=udp%3A%2F%2Ftracker.coppersurfer.tk%3A6969&amp;tr=udp%3A%2F%2Fexodus.desync.com%3A6969","seeders":3,"leechers":0,"uploader":"Bullrout","files":1,"time":1467635559,"description":"Coast Australia - S01E01 - The Kimberley\r\n\r\nIn the pristine Kimberley of Western Australia Neil Oliver discovers Broome's dark pearling history and the delicate science of their cultivation. Tim Flannery walks in primeval tracks along the legendary Dinosaur Coast. Xanthe Mallett explores a unique maritime war grave. Brendan Moar learns the art of Indigenous Raft making and Emma Johnston investigates the lush, protected habitat of migratory shorebirds. Finally Neil Oliver wrestles the southern hemisphere's biggest tides at the surging Horizontal Falls, and finally experiences the dreaming stories through a little sacred maintenance on some ancient rock art.\r\n\r\nComplete name                            : Coast Australia - S01E01 - The Kimberley.mp4\r\nFormat                                   : MPEG-4\r\nFormat profile                           : Base Media / Version 2\r\nCodec ID                                 : mp42 (mp42/isom/avc1)\r\nFile size                                : 416 MiB\r\nDuration                                 : 51mn 58s\r\nOverall bit rate mode                    : Variable\r\nOverall bit rate                         : 1 119 Kbps\r\n\r\nVideo\r\nID                                       : 2\r\nFormat                                   : AVC\r\nFormat/Info                              : Advanced Video Codec\r\nFormat profile                           :   \r\nFormat settings, CABAC                   : Yes\r\nFormat settings, ReFrames                : 3 frames\r\nCodec ID                                 : avc1\r\nCodec ID/Info                            : Advanced Video Coding\r\nDuration                                 : 51mn 58s\r\nBit rate mode                            : Variable\r\nBit rate                                 : 987 Kbps\r\nMaximum bit rate                         : 1 000 Kbps\r\nWidth                                    : 720 pixels\r\nHeight                                   : 404 pixels\r\nDisplay aspect ratio                     : 16:9\r\nOriginal display aspect ratio            : 16:9\r\nFrame rate mode                          : Constant\r\nFrame rate                               : 25.000 fps\r\nStandard                                 : PAL\r\nColor space                              : YUV\r\nChroma subsampling                       : 4:2:0\r\nBit depth                                : 8 bits\r\nScan type                                : Progressive\r\nBits/(Pixel*Frame)                       : 0.136\r\nStream size                              : 367 MiB (88%)\r\nWriting library                          : x264 core 112\r\nColor range                              : Limited\r\nColor primaries                          : BT.601 PAL\r\nTransfer characteristics                 : BT.470 System B, BT.470 System G\r\nMatrix coefficients                      : BT.601\r\n\r\nAudio\r\nID                                       : 1\r\nFormat                                   : AAC\r\nFormat/Info                              : Advanced Audio Codec\r\nFormat profile                           : LC\r\nCodec ID                                 : 40\r\nDuration                                 : 51mn 58s\r\nBit rate mode                            : Variable\r\nBit rate                                 : 128 Kbps\r\nMaximum bit rate                         : 576 Kbps\r\nChannel(s)                               : 2 channels\r\nChannel positions                        : Front: L R\r\nSampling rate                            : 48.0 KHz\r\nFrame rate                               : 46.875 fps (1024 spf)\r\nCompression mode                         : Lossy\r\nStream size                              : 47.6 MiB (11%)","torrent":{"xt":"urn:btih:88416c11196dd2e20ad9f6fc6ff782663757f9ab","amp;dn":"Coast+Australia+-+S01E01+-+The+Kimberley","amp;tr":["udp%3A%2F%2Ftracker.leechers-paradise.org%3A6969","udp%3A%2F%2Fzer0day.ch%3A1337","udp%3A%2F%2Fopen.demonii.com%3A1337","udp%3A%2F%2Ftracker.coppersurfer.tk%3A6969","udp%3A%2F%2Fexodus.desync.com%3A6969"],"infoHash":"88416c11196dd2e20ad9f6fc6ff782663757f9ab","infoHashBuffer":{"type":"Buffer","data":[136,65,108,17,25,109,210,226,10,217,246,252,111,247,130,102,55,87,249,171]},"announce":[],"urlList":[]}}